<svg xmlns="http://www.w3.org/2000/svg" width="694" height="124" viewBox="0 0 694 124">
    <defs>
        <style>
            .cls-chart{fill:#ff727c}
        </style>
    </defs>
    <g id="그룹_5270" data-name="그룹 5270" transform="translate(-590 -1072)">
        <path id="사각형_2141" data-name="사각형 2141" class="cls-chart" d="M7 0a7 7 0 0 1 7 7v73H0V7a7 7 0 0 1 7-7z" transform="translate(692 1116)"/>
        <path id="사각형_2141-2" data-name="사각형 2141" class="cls-chart" d="M7 0a7 7 0 0 1 7 7v89H0V7a7 7 0 0 1 7-7z" transform="translate(726 1100)"/>
        <path id="사각형_2141-3" data-name="사각형 2141" class="cls-chart" d="M7 0a7 7 0 0 1 7 7v117H0V7a7 7 0 0 1 7-7z" transform="translate(760 1072)"/>
        <path id="사각형_2141-4" data-name="사각형 2141" class="cls-chart" d="M7 0a7 7 0 0 1 7 7v105H0V7a7 7 0 0 1 7-7z" transform="translate(794 1084)"/>
        <path id="사각형_2141-5" data-name="사각형 2141" class="cls-chart" d="M7 0a7 7 0 0 1 7 7v81H0V7a7 7 0 0 1 7-7z" transform="translate(828 1108)"/>
        <path id="사각형_2141-6" data-name="사각형 2141" class="cls-chart" d="M7 0a7 7 0 0 1 7 7v117H0V7a7 7 0 0 1 7-7z" transform="translate(862 1072)"/>
        <path id="사각형_2141-7" data-name="사각형 2141" class="cls-chart" d="M7 0a7 7 0 0 1 7 7v101H0V7a7 7 0 0 1 7-7z" transform="translate(896 1088)"/>
        <path id="사각형_2141-8" data-name="사각형 2141" class="cls-chart" d="M7 0a7 7 0 0 1 7 7v85H0V7a7 7 0 0 1 7-7z" transform="translate(930 1104)"/>
        <path id="사각형_2141-9" data-name="사각형 2141" class="cls-chart" d="M7 0a7 7 0 0 1 7 7v85H0V7a7 7 0 0 1 7-7z" transform="translate(964 1104)"/>
        <path id="사각형_2141-10" data-name="사각형 2141" class="cls-chart" d="M7 0a7 7 0 0 1 7 7v69H0V7a7 7 0 0 1 7-7z" transform="translate(998 1120)"/>
        <path id="사각형_2141-11" data-name="사각형 2141" class="cls-chart" d="M7 0a7 7 0 0 1 7 7v113H0V7a7 7 0 0 1 7-7z" transform="translate(1032 1076)"/>
        <path id="사각형_2141-12" data-name="사각형 2141" class="cls-chart" d="M7 0a7 7 0 0 1 7 7v93H0V7a7 7 0 0 1 7-7z" transform="translate(1066 1096)"/>
        <path id="사각형_2141-13" data-name="사각형 2141" class="cls-chart" d="M7 0a7 7 0 0 1 7 7v25H0V7a7 7 0 0 1 7-7z" transform="translate(1100 1164)"/>
        <path id="사각형_2144" data-name="사각형 2144" class="cls-chart" d="M7 0a7 7 0 0 1 7 7v25H0V7a7 7 0 0 1 7-7z" transform="translate(624 1164)"/>
        <path id="사각형_2141-14" data-name="사각형 2141" class="cls-chart" d="M7 0a7 7 0 0 1 7 7v65H0V7a7 7 0 0 1 7-7z" transform="translate(1134 1124)"/>
        <path id="사각형_2147" data-name="사각형 2147" class="cls-chart" d="M7 0a7 7 0 0 1 7 7v61H0V7a7 7 0 0 1 7-7z" transform="translate(590 1128)"/>
        <path id="사각형_2146" data-name="사각형 2146" class="cls-chart" d="M7 0a7 7 0 0 1 7 7v61H0V7a7 7 0 0 1 7-7z" transform="translate(1270 1128)"/>
        <path id="사각형_2141-15" data-name="사각형 2141" class="cls-chart" d="M7 0a7 7 0 0 1 7 7v37H0V7a7 7 0 0 1 7-7z" transform="translate(1168 1152)"/>
        <path id="사각형_2145" data-name="사각형 2145" class="cls-chart" d="M7 0a7 7 0 0 1 7 7v37H0V7a7 7 0 0 1 7-7z" transform="translate(658 1152)"/>
        <path id="사각형_2141-16" data-name="사각형 2141" class="cls-chart" d="M7 0a7 7 0 0 1 7 7v21H0V7a7 7 0 0 1 7-7z" transform="translate(1202 1168)"/>
        <path id="사각형_2142" data-name="사각형 2142" class="cls-chart" d="M7 0a7 7 0 0 1 7 7v21H0V7a7 7 0 0 1 7-7z" transform="translate(1236 1168)"/>
    </g>
</svg>
