<svg xmlns="http://www.w3.org/2000/svg" width="206.637" height="43.281" viewBox="0 0 206.637 43.281">
    <defs>
        <style>
            .cls-1{fill:#fc595a}
        </style>
    </defs>
    <g id="hero-1" transform="translate(-24.362 -40.72)">
        <g id="그룹_5532" data-name="그룹 5532" transform="translate(-1206.914 -274.35)">
            <path id="패스_5549" data-name="패스 5549" class="cls-1" d="M1256.6 315.389a21.628 21.628 0 0 0-19.907 35.623v-15.137a15.228 15.228 0 0 1 6.24-12.143 16.224 16.224 0 0 1 26.105 14.759 16.635 16.635 0 0 1-8.359 12.553c-4.2 2.314-9.964 3.124-13.369-.281l-5.007-4.826 2.425-2.348 4.946 4.767a3.934 3.934 0 0 0 2.7 1.183h.057a3.42 3.42 0 0 0 3.48-3.539 3.9 3.9 0 0 0-1.161-2.676l-6.166-5.991a6.537 6.537 0 0 1-.15-9.231 6.307 6.307 0 0 1 4.5-1.838h.114a6.7 6.7 0 0 1 4.607 1.983l4.293 4.242-2.369 2.4-4.3-4.251a3.353 3.353 0 0 0-2.3-1 3.008 3.008 0 0 0-2.161.849 2.935 2.935 0 0 0-.849 2.192 3.341 3.341 0 0 0 .994 2.263l6.165 5.991a7.259 7.259 0 0 1 2.154 5 6.925 6.925 0 0 1-.312 2.221 13.083 13.083 0 0 0-2.7-24.055 13.032 13.032 0 0 0-11.3 2.325 11.885 11.885 0 0 0-4.9 9.455V354.1a21.629 21.629 0 1 0 16.532-38.708z"/>
        </g>
        <g id="그룹_5533" data-name="그룹 5533" transform="translate(-1076.914 -434.764)">
            <g id="그룹_5183" data-name="그룹 5183" transform="translate(1157.914 483.484)">
                <path id="패스_5550" data-name="패스 5550" class="cls-1" d="M1183.382 510.156h-4.955v-12.025h-2.209l1.42 11.709h-3.376l-1.641-12.908-.38-3.977-.378 4.1-1.894 12.782h-4.261l-.821-12.971-.158-4.008-.378 3.912-1.957 13.066h-4.482l3.661-26.069h5.176l.789 13 .157 4.04.284-4.007 1.61-13.035h4.86l1.231 10h2.745v-10h4.955z" transform="translate(-1157.914 -483.615)"/>
                <path id="패스_5551" data-name="패스 5551" class="cls-1" d="m1230.482 504.853-5.175 5.964h-7.607l9.152-10h9.468l6.311 10h-6.059l-3.787-5.964zm-12.718-21.05h15.211v14.928h-15.211V483.8zm10.1 10.573v-6.249h-4.985v6.249zm13.793 5.238h-5.113v-15.842h5.113z" transform="translate(-1185.132 -483.615)"/>
                <path id="패스_5552" data-name="패스 5552" class="cls-1" d="M1274.128 497.969v-3.314h25.5v3.314zm4.891-8.426.315-1.926h-3.313v-3.787h21.712v3.787h-3l-.315 1.926h3.314v3.819h-21.712v-3.819zm19.03 17.957v3.345h-22.028v-7.51h16.6v-1.01h-16.6V499.1h21.712v7.259h-16.568v1.141zm-13.917-17.957h5.175l.315-1.926h-5.175z" transform="translate(-1210.82 -483.642)"/>
                <path id="패스_5553" data-name="패스 5553" class="cls-1" d="M1349.021 510.156h-4.8v-13.728h-1.609v2.24h-6.312v6.818h6.6v4.355h-11.71v-15.528h6.312v-6.154h-6.248V483.8h11.361v7.826h1.609v-7.858h4.8zm6.438 0h-4.8v-26.384h4.8z" transform="translate(-1236.798 -483.615)"/>
                <path id="패스_5554" data-name="패스 5554" class="cls-1" d="M1404.845 488.944q-.284 4.387-.631 8.284t-.916 7.622a5.976 5.976 0 0 1-.963 2.541 5.336 5.336 0 0 1-1.7 1.562 6.914 6.914 0 0 1-2.177.789 12.969 12.969 0 0 1-2.382.221 15.442 15.442 0 0 1-2.952-.269 6.621 6.621 0 0 1-2.367-.915 4.382 4.382 0 0 1-1.531-1.688 4.738 4.738 0 0 1-.41-2.588q.346-3.755.647-7.464t.836-7.842a6.648 6.648 0 0 1 .947-2.841 5.741 5.741 0 0 1 1.766-1.751 6.661 6.661 0 0 1 2.3-.883 13.764 13.764 0 0 1 2.556-.236 12.622 12.622 0 0 1 2.557.267 6.983 6.983 0 0 1 2.32.916 4.809 4.809 0 0 1 1.625 1.688 4.386 4.386 0 0 1 .475 2.587zm-6.438 14.457q.19-1.48.379-2.929t.363-2.962q.172-1.512.331-3.181t.315-3.561a2.863 2.863 0 0 0-.52-2.283 2.093 2.093 0 0 0-1.53-.646 2.748 2.748 0 0 0-.837.126 1.936 1.936 0 0 0-.741.456 2.754 2.754 0 0 0-.6.914 5.812 5.812 0 0 0-.38 1.5q-.253 1.827-.426 3.433t-.331 3.135q-.158 1.529-.284 3.009t-.253 3.023a2.567 2.567 0 0 0 .142 1.245 1.536 1.536 0 0 0 .537.677 1.641 1.641 0 0 0 .725.268 6.342 6.342 0 0 0 .742.047 4.478 4.478 0 0 0 .725-.063 1.69 1.69 0 0 0 .71-.3 2.083 2.083 0 0 0 .584-.677 3.307 3.307 0 0 0 .349-1.232zm14.611 6.624h-5.111v-26.384h5.111z" transform="translate(-1263.02 -483.484)"/>
            </g>
        </g>
    </g>
</svg>
