<svg xmlns="http://www.w3.org/2000/svg" width="52" height="52" viewBox="0 0 52 52">
    <path data-name="패스 5555" d="M396.823 316.384a25.985 25.985 0 0 0-23.917 42.8V341a18.3 18.3 0 0 1 7.5-14.589 19.493 19.493 0 0 1 31.365 17.732 19.983 19.983 0 0 1-10.043 15.081c-5.048 2.78-11.972 3.754-16.063-.338l-6.015-5.8 2.913-2.821 5.942 5.727a4.729 4.729 0 0 0 3.242 1.421h.068a4.108 4.108 0 0 0 4.182-4.252 4.687 4.687 0 0 0-1.395-3.216l-7.408-7.2a7.853 7.853 0 0 1-.181-11.09 7.577 7.577 0 0 1 5.411-2.208h.137a8.044 8.044 0 0 1 5.536 2.382l5.158 5.1-2.846 2.885-5.169-5.107a4.027 4.027 0 0 0-2.764-1.2 3.614 3.614 0 0 0-2.6 1.021 3.527 3.527 0 0 0-1.02 2.634 4.013 4.013 0 0 0 1.195 2.718l7.407 7.2a8.719 8.719 0 0 1 2.587 6 8.315 8.315 0 0 1-.375 2.669 15.719 15.719 0 0 0-3.244-28.9 15.658 15.658 0 0 0-13.575 2.794A14.279 14.279 0 0 0 376.96 341v21.89a25.987 25.987 0 1 0 19.863-46.506z" transform="translate(-366.398 -316)" style="fill:#ff595a"/>
</svg>
