<svg id="그룹_5183" data-name="그룹 5183" xmlns="http://www.w3.org/2000/svg" width="275.353" height="49.936" viewBox="0 0 275.353 49.936">
    <defs>
        <style>
            .cls-1{fill:#fff}
        </style>
    </defs>
    <path id="패스_5550" data-name="패스 5550" class="cls-1" d="M1204.665 532.205h-9.1v-22.074h-4.055l2.607 21.495h-6.2l-3.012-23.695-.7-7.3-.694 7.531-3.476 23.464h-7.821l-1.507-23.811-.29-7.357-.694 7.182-3.592 23.986h-8.227l6.721-47.854h9.5l1.448 23.868.289 7.416.521-7.356 2.955-23.928h8.921l2.26 18.365h5.04v-18.365h9.1z" transform="translate(-1157.914 -483.484)"/>
    <path id="패스_5551" data-name="패스 5551" class="cls-1" d="m1241.163 522.471-9.5 10.949H1217.7l16.8-18.364h17.38l11.585 18.364h-11.122l-6.952-10.949zm-23.346-38.641h27.923v27.4h-27.923v-27.4zm18.537 19.409v-11.472h-9.154v11.472zm25.319 9.616h-9.386v-29.083h9.386z" transform="translate(-1157.914 -483.484)"/>
    <path id="패스_5552" data-name="패스 5552" class="cls-1" d="M1274.128 509.785V503.7h46.809v6.084zm8.979-15.468.579-3.535h-6.086v-6.952h39.857v6.952h-5.5l-.579 3.535h6.083v7.01H1277.6v-7.01zm34.933 32.963v6.14h-40.44v-13.786h30.472v-1.854H1277.6v-5.91h39.857v13.33h-30.414v2.085zm-25.547-32.963h9.5l.579-3.535h-9.5z" transform="translate(-1157.914 -483.484)"/>
    <path id="패스_5553" data-name="패스 5553" class="cls-1" d="M1363.922 532.205h-8.805V507h-2.954v4.112h-11.588v12.515h12.109v7.995h-21.494v-28.5h11.587v-11.3h-11.47v-8h20.856V498.2h2.954v-14.428h8.805zm11.818 0h-8.8v-48.433h8.8z" transform="translate(-1157.914 -483.484)"/>
    <path id="패스_5554" data-name="패스 5554" class="cls-1" d="M1418.263 493.506q-.522 8.053-1.158 15.207t-1.681 13.991a10.972 10.972 0 0 1-1.767 4.664 9.8 9.8 0 0 1-3.128 2.867 12.69 12.69 0 0 1-4 1.448 23.808 23.808 0 0 1-4.373.406 28.353 28.353 0 0 1-5.418-.493 12.16 12.16 0 0 1-4.345-1.68 8.044 8.044 0 0 1-2.81-3.1 8.7 8.7 0 0 1-.752-4.75q.636-6.894 1.188-13.7t1.534-14.4a12.2 12.2 0 0 1 1.739-5.215 10.537 10.537 0 0 1 3.243-3.215 12.223 12.223 0 0 1 4.23-1.621 25.263 25.263 0 0 1 4.692-.434 23.166 23.166 0 0 1 4.693.491 12.815 12.815 0 0 1 4.258 1.681 8.829 8.829 0 0 1 2.983 3.1 8.052 8.052 0 0 1 .872 4.753zm-11.818 26.539q.348-2.716.7-5.376t.666-5.437q.316-2.775.607-5.84t.579-6.537q.232-3-.955-4.191a3.842 3.842 0 0 0-2.809-1.186 5.048 5.048 0 0 0-1.536.231 3.553 3.553 0 0 0-1.361.838 5.06 5.06 0 0 0-1.1 1.677 10.664 10.664 0 0 0-.7 2.748q-.464 3.354-.782 6.3t-.607 5.755q-.289 2.807-.521 5.524t-.464 5.55a4.715 4.715 0 0 0 .261 2.286 2.821 2.821 0 0 0 .985 1.242 3.013 3.013 0 0 0 1.331.492 11.657 11.657 0 0 0 1.363.087 8.225 8.225 0 0 0 1.331-.115 3.1 3.1 0 0 0 1.3-.55 3.827 3.827 0 0 0 1.073-1.243 6.066 6.066 0 0 0 .639-2.255zm26.822 12.16h-9.383v-48.433h9.383z" transform="translate(-1157.914 -483.484)"/>
</svg>
